<?xml version="1.0" encoding="utf-8"?>
<!-- Generator: Adobe Illustrator 16.0.0, SVG Export Plug-In . SVG Version: 6.00 Build 0)  -->
<!DOCTYPE svg PUBLIC "-//W3C//DTD SVG 1.1//EN" "http://www.w3.org/Graphics/SVG/1.1/DTD/svg11.dtd">
<svg version="1.1" id="Layer_5" xmlns="http://www.w3.org/2000/svg" xmlns:xlink="http://www.w3.org/1999/xlink" x="0px" y="0px"
	 width="238.75px" height="296.049px" viewBox="0 0 238.75 296.049" enable-background="new 0 0 238.75 296.049"
	 xml:space="preserve">
<g>
	<polygon fill="#1BA698" points="0,74.012 119.375,0 238.75,74.012 238.75,222.036 119.375,296.049 0,222.036 	"/>
	<polygon fill="#02D4BF" points="0,74.012 119.375,0 238.75,74.012 	"/>
	<polygon fill="#1E7C72" points="0,222.036 119.375,296.03 238.75,222.036 	"/>
	<g>
		<path fill-rule="evenodd" clip-rule="evenodd" fill="#FFFFFF" d="M218.504,208.045c-7,0-13.539,0-20.305,0
			c0-33.021,0-65.898,0-98.991c-27.221,0-54.213,0-81.496,0c0,32.84,0,65.701,0,99.489c-25.759-23.922-50.865-47.241-76.485-71.036
			c0,23.943,0,47.252,0,70.759c-6.86,0-13.388,0-20.183,0c0-38.953,0-77.932,0-117.396c25.37,23.615,50.471,46.981,76.105,70.842
			c0-24.111,0-47.596,0-71.356c1.408,0,2.439,0,3.472,0c38.101,0,76.203,0,114.304,0.001c2.291,0,3.439,0.001,4.014,0.51
			c0.572,0.51,0.574,1.527,0.574,3.56c0,36.763,0,73.526,0,110.287C218.504,205.758,218.504,206.797,218.504,208.045z"/>
		<path fill-rule="evenodd" clip-rule="evenodd" fill="#FFFFFF" d="M166.738,208.05c-6.684,0-13.219,0-20,0
			c0-23.134,0-46.255,0-69.565c6.602,0,13.213,0,20,0C166.738,161.67,166.738,184.789,166.738,208.05z"/>
	</g>
</g>
</svg>
