<?xml version="1.0" encoding="utf-8"?>
<!-- Generator: Adobe Illustrator 16.0.0, SVG Export Plug-In . SVG Version: 6.00 Build 0)  -->
<!DOCTYPE svg PUBLIC "-//W3C//DTD SVG 1.1//EN" "http://www.w3.org/Graphics/SVG/1.1/DTD/svg11.dtd">
<svg version="1.1" id="Layer_1" xmlns="http://www.w3.org/2000/svg" xmlns:xlink="http://www.w3.org/1999/xlink" x="0px" y="0px"
	 width="605.225px" height="58.752px" viewBox="0 0 605.225 58.752" enable-background="new 0 0 605.225 58.752"
	 xml:space="preserve">
<g>
	<path d="M0,56.592V2.304h14.112L39.96,35.496h0.144V2.304h14.112v54.288H40.104L14.256,23.328h-0.144v33.264H0z"/>
	<path d="M95.76,14.256H78.984v9.072h15.912V35.28H78.984v9.36H95.76v11.952H64.872V2.304H95.76V14.256z"/>
	<path d="M120.023,2.304v54.288h-14.112V2.304H120.023z"/>
	<path d="M140.326,2.304L153.43,35.28l13.176-32.976h15.336l-23.184,54.288h-10.944L124.99,2.304H140.326z"/>
	<path d="M201.021,2.304v54.288h-14.112V2.304H201.021z"/>
	<path d="M211.676,56.592V2.304h14.112l25.848,33.192h0.144V2.304h14.112v54.288H251.78l-25.848-33.264h-0.144v33.264H211.676z"/>
	<path d="M328.748,57.744l-16.272-37.008h-0.144l-6.336,35.856h-6.984L310.099,0l18.648,42.768L347.395,0l11.088,56.592H351.5
		l-6.336-35.856h-0.145L328.748,57.744z"/>
	<path d="M398.587,42.984h-24.912l-6.191,13.608h-7.272L386.131,0l25.92,56.592h-7.271L398.587,42.984z M395.78,36.792l-9.648-21.96
		l-9.647,21.96H395.78z"/>
	<path d="M426.883,8.496v48.096h-6.768V8.496h-12.889V2.304h32.545v6.192H426.883z"/>
	<path d="M452.731,24.192h25.848V2.304h6.769v54.288h-6.769V30.528h-25.848v26.064h-6.768V2.304h6.768V24.192z"/>
	<path d="M496.578,56.592V2.304h29.16v6.192h-22.392v15.192h21.744v6.192h-21.744V50.4h22.392v6.192H496.578z"/>
	<path d="M536.826,2.304l15.191,38.88l15.336-40.032l15.336,40.032l15.192-38.88h7.344l-22.536,56.448l-15.336-39.816
		l-15.336,39.816L529.481,2.304H536.826z"/>
</g>
</svg>
